<svg data-noselect="" viewBox="0 0 400 300" width="400" height="300" preserveAspectRatio="none" version="1.1" xmlns="http://www.w3.org/2000/svg" style="background: rgba(255, 255, 255, 0);"><defs></defs> <g id="shape_jAyE8RvSpi" transform="translate(221.73870966614382,120.90543233500048) rotate(0,81.85381024121308,22.687863387105217) scale(0.9202595638204574,0.9202595638204574)" filter="" style="cursor: move; opacity: 1;"><g><svg xmlns="http://www.w3.org/2000/svg" version="1.1" xmlns:xlink="http://www.w3.org/1999/xlink" overflow="hidden" style="top:0; left: 0" width="163.70762048242617" height="45.375726774210435" viewBox="0 0 172.27904905385492 47.751516" preserveAspectRatio="none" data-parent="shape_jAyE8RvSpi"><rect fill="rgba(0,0,0,0)" width="172.27904905385492" height="47.751516"></rect> <rect opacity="0"></rect><g transform="translate(0 0)" data-width="164.6604"><path fill="rgb(4, 123, 248)" d="M36.97-29.84L36.97-29.84Q38.00-29.84 38.76-29.08L38.76-29.08L38.76-29.08Q39.52-28.32 39.52-27.25L39.52-27.25L39.52-17.74L22.11-17.74L22.11 6.55L15.81 6.55L15.81-29.84L22.64-29.84L22.64-32.64L32.40-32.64L32.40-29.84L36.97-29.84ZM10.41-22.48L15.27-22.48L10.58-3.58L13.17-3.58L13.17-0.66L1.56-0.66L5.47-15.19L0.70-15.19L5.19-31.16L11.57-31.16L7.78-18.07L9.14-18.07L10.41-22.48ZM33.38-20.42L33.38-26.18L33.38-26.18Q33.38-27.05 32.52-27.05L32.52-27.05L23.71-27.05L23.71-20.42L33.38-20.42ZM36.97-16.42L36.97-16.42Q38.00-16.42 38.76-15.66L38.76-15.66L38.76-15.66Q39.52-14.90 39.52-13.83L39.52-13.83L39.52 6.55L36.14 6.55L36.14-2.63L35.28-2.63L35.28 6.55L31.74 6.55L31.74-2.63L31.00-2.63L31.00 6.55L27.58 6.55L27.58-2.63L26.72-2.63L26.72 6.55L23.13 6.55L23.13-16.42L36.97-16.42ZM27.58-5.39L27.58-13.67L26.72-13.67L26.72-5.39L27.58-5.39ZM31.74-5.39L31.74-13.67L31.00-13.67L31.00-5.39L31.74-5.39ZM36.14-5.39L36.14-12.60L36.14-12.60Q36.14-13.46 35.28-13.46L35.28-13.46L35.28-5.39L36.14-5.39ZM1.89 5.19L1.89 2.55L13.17 2.55L13.17 5.19L1.89 5.19Z" transform="translate(0 35.401986) skewX(-15)"></path><path fill="rgb(4, 123, 248)" d="M17.12-23.88L17.12-20.99L13.67-20.99L13.67 6.63L5.23 6.63L5.23-20.99L1.73-20.99L1.73-23.88L5.23-23.88L5.23-28.57L1.81-28.16L1.81-31.04L17.17-32.85L17.17-29.97L13.67-29.56L13.67-23.88L17.12-23.88ZM39.19-29.14L39.19-18.28L18.77-18.28L18.77-31.74L36.64-31.74L36.64-31.74Q37.67-31.74 38.43-30.98L38.43-30.98L38.43-30.98Q39.19-30.22 39.19-29.14L39.19-29.14ZM31.00-21.12L31.00-28.07L31.00-28.07Q31.00-28.94 30.13-28.94L30.13-28.94L26.92-28.94L26.92-21.12L31.00-21.12ZM1.48 6.63L2.06-19.51L4.61-19.51L4.12 6.63L1.48 6.63ZM14.20-19.51L16.84-19.51L17.37 6.63L14.74 6.63L14.20-19.51ZM33.88 3.38L40.26 3.38L40.26 6.22L17.70 6.22L17.70 3.38L24.04 3.38L24.04-3.25L18.65-3.25L18.65-6.13L24.04-6.13L24.04-13.13L18.65-13.13L18.65-15.89L39.31-15.89L39.31-13.13L33.88-13.13L33.88-6.13L39.31-6.13L39.31-3.25L33.88-3.25L33.88 3.38Z" transform="translate(41.1651 35.401986) skewX(-15)"></path><path fill="rgb(4, 123, 248)" d="M15.60 6.55L15.60-9.10L1.44-9.10L1.44-11.86L15.60-11.86L15.60-29.10L2.84-29.10L2.84-31.90L38.82-31.90L38.82-29.10L26.02-29.10L26.02-11.86L40.22-11.86L40.22-9.10L26.02-9.10L26.02 6.55L15.60 6.55ZM12.39-26.59L14.16-14.57L5.23-14.57L3.70-26.59L12.39-26.59ZM36.68-14.57L27.75-14.57L29.47-26.59L38.20-26.59L36.68-14.57Z" transform="translate(82.3302 35.401986) skewX(-15)"></path><path fill="rgb(4, 123, 248)" d="M29.47-14.65L28.61-17.66L2.14-15.03L1.81-18.07L3.25-18.19L10.21-32.73L20.58-32.73L14.65-19.22L27.87-20.38L25.44-29.10L35.73-29.10L39.77-14.65L29.47-14.65ZM35.44-13.09L35.44-13.09Q36.51-13.09 37.25-12.35L37.25-12.35L37.25-12.35Q38.00-11.61 38.00-10.54L38.00-10.54L38.00 6.63L4.20 6.63L4.20-13.09L35.44-13.09ZM27.70 3.91L27.70-9.51L27.70-9.51Q27.70-10.33 26.84-10.33L26.84-10.33L14.53-10.33L14.53 3.91L27.70 3.91Z" transform="translate(123.49530000000001 35.401986) skewX(-15)"></path></g></svg></g> <!----></g><g id="shape_I2HXVkenyX" transform="translate(37.248622455802604,118.00660110155441) rotate(0,100,40.283203125) scale(0.9202595638204574,0.9202595638204574)" filter="" style="cursor: move; opacity: 1;"><g><svg xmlns="http://www.w3.org/2000/svg" version="1.1" xmlns:xlink="http://www.w3.org/1999/xlink" overflow="hidden" style="top:0; left: 0" width="200" height="69.53125" viewBox="0 0 200 69.53125" preserveAspectRatio="none" data-parent="shape_I2HXVkenyX"><rect fill="rgba(0,0,0,0)" width="200" height="69.53125"></rect> <rect opacity="0"></rect><g transform="translate(0 0)" data-width="193.359375"><path fill="rgb(4, 123, 248)" d="M22.95-13.18L16.72-30.88L10.57-13.18L22.95-13.18ZM5.98 0L0.98 0L0.98 0Q1.29-0.73 1.64-1.54L1.64-1.54L1.64-1.54Q1.98-2.34 2.38-3.36L2.38-3.36L2.38-3.36Q2.78-4.37 3.27-5.66L3.27-5.66L3.27-5.66Q3.76-6.96 4.39-8.67L4.39-8.67L14.16-35.64L19.41-35.64L29.17-8.67L29.17-8.67Q29.79-6.96 30.27-5.66L30.27-5.66L30.27-5.66Q30.76-4.37 31.18-3.36L31.18-3.36L31.18-3.36Q31.59-2.34 31.93-1.54L31.93-1.54L31.93-1.54Q32.28-0.73 32.59 0L32.59 0L27.59 0L24.27-9.40L9.25-9.40L5.98 0Z" transform="translate(0 40.234375) skewX(-15)" stroke="rgb(4, 123, 248)" stroke-width="2" stroke-linecap="round" stroke-linejoin="round"></path><path fill="rgb(4, 123, 248)" d="M25.63 0L21.12 0L21.12-13.43L21.12-13.43Q21.12-15.72 20.81-17.21L20.81-17.21L20.81-17.21Q20.51-18.70 19.91-19.57L19.91-19.57L19.91-19.57Q19.31-20.43 18.40-20.78L18.40-20.78L18.40-20.78Q17.48-21.12 16.24-21.12L16.24-21.12L16.24-21.12Q14.92-21.12 13.66-20.50L13.66-20.50L13.66-20.50Q12.40-19.87 11.35-18.88L11.35-18.88L11.35-18.88Q10.30-17.90 9.50-16.65L9.50-16.65L9.50-16.65Q8.69-15.41 8.30-14.16L8.30-14.16L8.30 0L3.78 0L3.78-15.01L3.78-15.01Q3.78-18.63 3.38-21.13L3.38-21.13L3.38-21.13Q2.98-23.63 2.56-24.90L2.56-24.90L6.96-24.90L6.96-24.90Q7.10-24.51 7.25-23.89L7.25-23.89L7.25-23.89Q7.40-23.27 7.52-22.58L7.52-22.58L7.52-22.58Q7.64-21.90 7.74-21.24L7.74-21.24L7.93-20.14L7.93-20.14Q10.25-22.92 12.62-24.16L12.62-24.16L12.62-24.16Q14.99-25.39 17.58-25.39L17.58-25.39L17.58-25.39Q21.48-25.39 23.56-22.84L23.56-22.84L23.56-22.84Q25.63-20.29 25.63-15.26L25.63-15.26L25.63 0Z" transform="translate(34.0576171875 40.234375) skewX(-15)" stroke="rgb(4, 123, 248)" stroke-width="2" stroke-linecap="round" stroke-linejoin="round"></path><path fill="rgb(4, 123, 248)" d="M21.85-16.24L15.99 0L15.99 0Q14.72 3.52 13.50 5.74L13.50 5.74L13.50 5.74Q12.28 7.96 11.02 9.24L11.02 9.24L11.02 9.24Q9.77 10.52 8.41 11.00L8.41 11.00L8.41 11.00Q7.06 11.47 5.49 11.47L5.49 11.47L5.49 11.47Q3.81 11.47 2.33 10.94L2.33 10.94L2.33 10.94Q0.85 10.40-0.49 9.40L-0.49 9.40L0.98 5.49L0.98 5.49Q1.37 5.81 1.89 6.14L1.89 6.14L1.89 6.14Q2.42 6.47 3.02 6.73L3.02 6.73L3.02 6.73Q3.61 6.98 4.25 7.15L4.25 7.15L4.25 7.15Q4.88 7.32 5.49 7.32L5.49 7.32L5.49 7.32Q6.23 7.32 6.93 7.07L6.93 7.07L6.93 7.07Q7.64 6.81 8.36 6.09L8.36 6.09L8.36 6.09Q9.08 5.37 9.84 4.06L9.84 4.06L9.84 4.06Q10.60 2.76 11.45 0.63L11.45 0.63L4.64-16.24L4.64-16.24Q3.96-17.90 3.05-19.97L3.05-19.97L3.05-19.97Q2.15-22.05 0.73-24.90L0.73-24.90L5.62-24.90L13.50-4.96L13.50-4.96Q13.96-6.27 14.51-7.82L14.51-7.82L14.51-7.82Q15.06-9.38 15.65-11.02L15.65-11.02L15.65-11.02Q16.24-12.67 16.82-14.34L16.82-14.34L16.82-14.34Q17.41-16.02 17.94-17.55L17.94-17.55L17.94-17.55Q19.21-21.17 20.51-24.90L20.51-24.90L25.39-24.90L25.39-24.90Q24.76-23.49 24.24-22.28L24.24-22.28L24.24-22.28Q23.73-21.07 23.29-20.01L23.29-20.01L23.29-20.01Q22.85-18.95 22.50-18.02L22.50-18.02L22.50-18.02Q22.14-17.09 21.85-16.24L21.85-16.24Z" transform="translate(62.98828125 40.234375) skewX(-15)" stroke="rgb(4, 123, 248)" stroke-width="2" stroke-linecap="round" stroke-linejoin="round"></path><path fill="rgb(4, 123, 248)" d="M20.51-24.90L25.63-24.90L25.63-24.90Q25.12-23.85 24.57-22.63L24.57-22.63L24.57-22.63Q24.02-21.41 23.52-20.24L23.52-20.24L23.52-20.24Q23.02-19.07 22.58-18.02L22.58-18.02L22.58-18.02Q22.14-16.97 21.85-16.24L21.85-16.24L21.85-16.24Q21.61-15.65 21.20-14.64L21.20-14.64L21.20-14.64Q20.80-13.62 20.30-12.37L20.30-12.37L20.30-12.37Q19.80-11.11 19.24-9.70L19.24-9.70L19.24-9.70Q18.68-8.30 18.14-6.93L18.14-6.93L18.14-6.93Q16.85-3.71 15.38 0L15.38 0L10.74 0L10.74 0Q9.33-3.54 8.08-6.69L8.08-6.69L8.08-6.69Q7.54-8.03 6.98-9.42L6.98-9.42L6.98-9.42Q6.42-10.82 5.92-12.10L5.92-12.10L5.92-12.10Q5.42-13.38 4.99-14.45L4.99-14.45L4.99-14.45Q4.57-15.53 4.27-16.24L4.27-16.24L4.27-16.24Q3.98-16.97 3.54-18.03L3.54-18.03L3.54-18.03Q3.10-19.09 2.59-20.26L2.59-20.26L2.59-20.26Q2.08-21.44 1.54-22.64L1.54-22.64L1.54-22.64Q1.00-23.85 0.49-24.90L0.49-24.90L5.62-24.90L13.06-4.88L20.51-24.90Z" transform="translate(88.8671875 40.234375) skewX(-15)" stroke="rgb(4, 123, 248)" stroke-width="2" stroke-linecap="round" stroke-linejoin="round"></path><path fill="rgb(4, 123, 248)" d="M3.78-32.84L3.78-32.84L3.78-32.84Q3.78-33.52 4.00-34.12L4.00-34.12L4.00-34.12Q4.22-34.72 4.63-35.17L4.63-35.17L4.63-35.17Q5.03-35.62 5.59-35.88L5.59-35.88L5.59-35.88Q6.15-36.13 6.84-36.13L6.84-36.13L6.84-36.13Q7.52-36.13 8.11-35.88L8.11-35.88L8.11-35.88Q8.69-35.62 9.11-35.17L9.11-35.17L9.11-35.17Q9.52-34.72 9.77-34.12L9.77-34.12L9.77-34.12Q10.01-33.52 10.01-32.84L10.01-32.84L10.01-32.84Q10.01-32.15 9.77-31.56L9.77-31.56L9.77-31.56Q9.52-30.96 9.11-30.51L9.11-30.51L9.11-30.51Q8.69-30.05 8.11-29.80L8.11-29.80L8.11-29.80Q7.52-29.54 6.84-29.54L6.84-29.54L6.84-29.54Q6.15-29.54 5.59-29.80L5.59-29.80L5.59-29.80Q5.03-30.05 4.63-30.51L4.63-30.51L4.63-30.51Q4.22-30.96 4.00-31.56L4.00-31.56L4.00-31.56Q3.78-32.15 3.78-32.84ZM9.16-24.90L9.16-11.60L9.16-11.60Q9.16-10.42 9.19-8.83L9.19-8.83L9.19-8.83Q9.23-7.23 9.29-5.59L9.29-5.59L9.29-5.59Q9.35-3.96 9.44-2.47L9.44-2.47L9.44-2.47Q9.52-0.98 9.64 0L9.64 0L4.64 0L4.64-12.94L4.64-12.94Q4.64-14.72 4.63-16.46L4.63-16.46L4.63-16.46Q4.61-18.19 4.58-19.74L4.58-19.74L4.58-19.74Q4.54-21.29 4.47-22.62L4.47-22.62L4.47-22.62Q4.39-23.95 4.27-24.90L4.27-24.90L9.16-24.90Z" transform="translate(114.990234375 40.234375) skewX(-15)" stroke="rgb(4, 123, 248)" stroke-width="2" stroke-linecap="round" stroke-linejoin="round"></path><path fill="rgb(4, 123, 248)" d="M24.15-11.84L6.84-11.84L6.84-11.84Q6.91-9.69 7.51-8.11L7.51-8.11L7.51-8.11Q8.11-6.52 9.14-5.48L9.14-5.48L9.14-5.48Q10.18-4.44 11.58-3.93L11.58-3.93L11.58-3.93Q12.99-3.42 14.65-3.42L14.65-3.42L14.65-3.42Q17.02-3.42 19.29-3.96L19.29-3.96L19.29-3.96Q21.56-4.49 23.80-5.86L23.80-5.86L24.29-1.83L24.29-1.83Q23.00-1.17 21.75-0.71L21.75-0.71L21.75-0.71Q20.51-0.24 19.26 0.05L19.26 0.05L19.26 0.05Q18.02 0.34 16.74 0.48L16.74 0.48L16.74 0.48Q15.45 0.61 14.04 0.61L14.04 0.61L14.04 0.61Q11.69 0.61 9.57-0.21L9.57-0.21L9.57-0.21Q7.45-1.03 5.83-2.62L5.83-2.62L5.83-2.62Q4.22-4.22 3.27-6.59L3.27-6.59L3.27-6.59Q2.32-8.96 2.32-12.08L2.32-12.08L2.32-12.08Q2.32-15.11 3.14-17.57L3.14-17.57L3.14-17.57Q3.96-20.02 5.47-21.77L5.47-21.77L5.47-21.77Q6.98-23.51 9.16-24.45L9.16-24.45L9.16-24.45Q11.33-25.39 14.04-25.39L14.04-25.39L14.04-25.39Q16.04-25.39 17.58-24.91L17.58-24.91L17.58-24.91Q19.12-24.44 20.24-23.60L20.24-23.60L20.24-23.60Q21.36-22.75 22.12-21.63L22.12-21.63L22.12-21.63Q22.88-20.51 23.33-19.21L23.33-19.21L23.33-19.21Q23.78-17.92 23.97-16.52L23.97-16.52L23.97-16.52Q24.17-15.11 24.17-13.75L24.17-13.75L24.17-12.79L24.17-12.79Q24.17-12.18 24.15-11.84L24.15-11.84ZM13.67-21.73L13.67-21.73L13.67-21.73Q10.99-21.73 9.28-20.15L9.28-20.15L9.28-20.15Q7.57-18.58 7.03-15.26L7.03-15.26L19.78-15.26L19.78-15.26Q19.78-16.82 19.32-18.03L19.32-18.03L19.32-18.03Q18.87-19.24 18.05-20.07L18.05-20.07L18.05-20.07Q17.24-20.90 16.11-21.31L16.11-21.31L16.11-21.31Q14.99-21.73 13.67-21.73Z" transform="translate(128.7841796875 40.234375) skewX(-15)" stroke="rgb(4, 123, 248)" stroke-width="2" stroke-linecap="round" stroke-linejoin="round"></path><path fill="rgb(4, 123, 248)" d="M17.09-24.90L20.75-24.90L27.10-5.25L32.23-24.90L36.74-24.90L36.74-24.90Q36.30-23.51 35.97-22.40L35.97-22.40L35.97-22.40Q35.64-21.29 35.35-20.28L35.35-20.28L35.35-20.28Q35.06-19.26 34.78-18.30L34.78-18.30L34.78-18.30Q34.50-17.33 34.18-16.24L34.18-16.24L29.66 0L25.02 0L18.92-19.17L12.82 0L8.18 0L3.66-16.24L3.66-16.24Q3.39-17.21 3.11-18.16L3.11-18.16L3.11-18.16Q2.83-19.12 2.53-20.14L2.53-20.14L2.53-20.14Q2.22-21.17 1.88-22.34L1.88-22.34L1.88-22.34Q1.54-23.51 1.10-24.90L1.10-24.90L5.62-24.90L10.74-5.25L17.09-24.90Z" transform="translate(155.517578125 40.234375) skewX(-15)" stroke="rgb(4, 123, 248)" stroke-width="2" stroke-linecap="round" stroke-linejoin="round"></path></g></svg></g> <!----></g><g id="shape_bafM2FpSqD" transform="translate(27.607786914613722,160.58215721887248) rotate(0,98.09523809523812,1.7848428571428574) scale(0.9202595638204574,0.9202595638204574)" filter="" style="cursor: move; opacity: 1;"><g><rect fill="rgba(0,0,0,0)" width="216.19047619047623" height="23.569685714285715" x="-10" y="-10"></rect><svg version="1.1" id="图层_1" x="0px" y="0px" width="196.19047619047623" height="3.569685714285715" viewBox="0 98.181 200 3.639" enable-background="new 0 98.181 200 3.639" xml:space="preserve" xmlns="http://www.w3.org/2000/svg" xmlns:xlink="http://www.w3.org/1999/xlink" xmlns:xml="http://www.w3.org/XML/1998/namespace" preserveAspectRatio="none" data-parent="shape_bafM2FpSqD">
  <path fill="#1b86de" d="M0,100c0,0,0.781-0.034,2.245-0.099c1.467-0.056,3.615-0.177,6.349-0.254
	c5.469-0.155,13.281-0.482,22.656-0.688c4.688-0.098,9.766-0.202,15.137-0.313c5.371-0.078,11.035-0.16,16.894-0.245
	c5.86-0.047,11.914-0.149,18.067-0.157c6.152-0.021,12.402-0.042,18.653-0.063c6.249,0.021,12.499,0.041,18.651,0.063
	c6.152,0,12.207,0.108,18.066,0.154c11.719,0.127,22.656,0.322,32.03,0.558c9.375,0.203,17.188,0.535,22.655,0.69
	c2.734,0.078,4.883,0.199,6.35,0.256C199.219,99.966,200,100,200,100s-0.781,0.034-2.245,0.099
	c-1.467,0.057-3.614,0.178-6.349,0.256c-5.469,0.155-13.281,0.487-22.656,0.69c-9.374,0.234-20.313,0.432-32.029,0.559
	c-5.861,0.047-11.914,0.153-18.068,0.154c-6.151,0.021-12.401,0.041-18.65,0.063c-6.251-0.021-12.501-0.043-18.653-0.063
	c-6.153-0.007-12.207-0.108-18.067-0.157c-5.858-0.084-11.522-0.166-16.894-0.244c-5.371-0.111-10.449-0.217-15.137-0.313
	c-9.375-0.205-17.188-0.532-22.656-0.688c-2.733-0.077-4.882-0.198-6.349-0.254C0.781,100.034,0,100,0,100z" class=""></path>
</svg></g> <!----></g>  <!----></svg>