<?xml version="1.0" standalone="no"?><!DOCTYPE svg PUBLIC "-//W3C//DTD SVG 1.1//EN" "http://www.w3.org/Graphics/SVG/1.1/DTD/svg11.dtd"><svg t="1557151344292" class="icon" style="" viewBox="0 0 1024 1024" version="1.1" xmlns="http://www.w3.org/2000/svg" p-id="2034" xmlns:xlink="http://www.w3.org/1999/xlink" width="16" height="16"><defs><style type="text/css"></style></defs><path d="M830.473355 556.406372l0 239.848647c0 9.514701-3.335978 17.605983-9.994632 24.270776-6.664793 6.658653-14.756075 9.994632-24.270776 9.994632L453.569216 830.520427c-9.519818 0-17.6111-3.335978-24.270776-9.994632-6.66377-6.664793-9.993608-14.756075-9.993608-24.270776l0-57.106626L225.142713 739.148393c-9.519818 0-17.6111-3.329838-24.269753-9.993608-6.664793-6.659677-9.993608-14.750959-9.993608-24.270776L190.879352 225.186715c0-9.513678 3.328815-17.605983 9.993608-24.269753 6.658653-6.658653 14.750959-9.993608 24.269753-9.993608l388.325259 0c9.514701 0 17.605983 3.334955 24.270776 9.993608 6.658653 6.664793 9.993608 14.756075 9.993608 24.269753l0 117.069299c4.997827 3.094478 9.279341 6.424316 12.849656 9.993608l145.622612 145.621589c6.658653 6.664793 12.369725 15.70468 17.132192 27.125801C828.092122 536.419156 830.473355 546.891671 830.473355 556.406372zM556.361347 270.872221l0-22.842241c0-3.089361-1.131777-5.76633-3.390213-8.030907-2.264577-2.25946-4.941546-3.390213-8.030907-3.390213L293.671483 236.608859c-3.095501 0-5.77247 1.131777-8.030907 3.390213-2.263553 2.263553-3.390213 4.941546-3.390213 8.030907l0 22.842241c0 3.095501 1.12666 5.77247 3.390213 8.030907 2.25946 2.264577 4.935406 3.390213 8.030907 3.390213l251.268744 0c3.089361 0 5.76633-1.12666 8.030907-3.390213C555.22957 276.644691 556.361347 273.967722 556.361347 270.872221zM464.99136 784.832875 784.78785 784.832875 784.78785 556.406372 636.310214 556.406372c-9.519818 0-17.6111-3.328815-24.270776-9.993608-6.66377-6.658653-9.993608-14.750959-9.993608-24.269753L602.045829 373.665375 464.99136 373.665375 464.99136 784.832875zM647.731334 510.720867l106.718557 0L647.731334 404.003334 647.731334 510.720867z" p-id="2035" fill="#1296db"></path></svg>