<?xml version="1.0" standalone="no"?><!DOCTYPE svg PUBLIC "-//W3C//DTD SVG 1.1//EN" "http://www.w3.org/Graphics/SVG/1.1/DTD/svg11.dtd"><svg t="1556894947699" class="icon" style="" viewBox="0 0 1024 1024" version="1.1" xmlns="http://www.w3.org/2000/svg" p-id="4247" xmlns:xlink="http://www.w3.org/1999/xlink" width="16" height="16"><defs><style type="text/css"></style></defs><path d="M942.8 495.3c-9.1 0-16.5 7.4-16.5 16.5 0 227.7-185.3 413-413 413s-413-185.3-413-413 185.3-413 413-413c9.1 0 16.5-7.4 16.5-16.5s-7.4-16.5-16.5-16.5c-245.9 0-446 200.1-446 446s200.1 446 446 446 446-200.1 446-446c0-9.1-7.4-16.5-16.5-16.5z" fill="#1afa29" p-id="4248"></path><path d="M612.4 98.8m-16.5 0a16.5 16.5 0 1 0 33 0 16.5 16.5 0 1 0-33 0Z" fill="#1afa29" p-id="4249"></path><path d="M926.3 412.7m-16.5 0a16.5 16.5 0 1 0 33 0 16.5 16.5 0 1 0-33 0Z" fill="#1afa29" p-id="4250"></path><path d="M526.4 662c-2.5 6.9-8.4 8.4-10.9 8.7-2.5 0.3-8.5 0.4-12.7-5.7l-77-148.9c-7.8-11.5-20.2-18.8-34-20.1-13.9-1.3-27.3 3.6-37.1 13.4l-28 28 0.2 0.2c-2 2.7-3.2 6.1-3.2 9.8 0 9.1 7.4 16.5 16.5 16.5 3.7 0 7.1-1.2 9.8-3.2l0.1 0.1 0.4-0.4c1-0.8 1.9-1.7 2.7-2.7l24.9-24.9c3.9-3.8 8.4-4 10.7-3.8 2.3 0.2 6.7 1.3 9.8 5.8l77 148.8c8.7 12.8 23 20.3 38.2 20.3 1.9 0 3.9-0.1 5.8-0.4 17.4-2.2 31.9-13.7 37.8-30.2l153.9-523.9c64 35.2 118.8 87.6 156.4 150.4 6.3 10.5 12.1 21.3 17.5 32.3 3.9 8.1 13.3 11.8 21.6 8.2 8.5-3.7 12.5-13.7 8.4-22.1-5.8-12.1-12.2-24-19.1-35.5-45.1-75.2-110-134.6-188.4-172.5-7.3-3.6-16-0.9-20.6 5.5l-0.3-0.1-0.3 1c-0.4 0.6-0.7 1.3-1.1 2-0.9 2.1-1.3 4.2-1.4 6.3L526.4 662z" fill="#1afa29" p-id="4251"></path></svg>