<?xml version="1.0" standalone="no"?><!DOCTYPE svg PUBLIC "-//W3C//DTD SVG 1.1//EN" "http://www.w3.org/Graphics/SVG/1.1/DTD/svg11.dtd"><svg t="1557149579729" class="icon" style="" viewBox="0 0 1056 1024" version="1.1" xmlns="http://www.w3.org/2000/svg" p-id="2481" xmlns:xlink="http://www.w3.org/1999/xlink" width="16.5" height="16"><defs><style type="text/css"></style></defs><path d="M266.0317958 231.07929925l91.30758782-24.03438189 67.27320676 67.27320593-24.03630423 91.30758865-91.30758866 24.0343819-67.27320593-67.27320593 24.03630424-91.30758866z" fill="#40BF4F" p-id="2482"></path><path d="M301.36743111 220.20664858l55.58371299-14.18038137 69.73718664 70.96917701-24.03438273 88.84360793-58.04961519 12.94839103-67.27320594-67.27320593 24.03630423-91.30758867z" fill="#359941" p-id="2483"></path><path d="M593.13003014 428.87236655l-127.79064652 127.79064568 55.76053546 55.7624578 127.79064653-127.79064651-55.76053547-55.76245697z" fill="#A6A6A6" p-id="2484"></path><path d="M970.2824363 777.15084021L826.22413652 921.20913999 620.66241909 715.64742337l-56.06036417 56.06228649-349.94867597-93.76964703L120.88373191 327.99138687l62.85649192-62.85457041L405.59842457 486.99501721l97.17155475-97.17155474 0.68038139 0.67845986L727.29973399 166.65254822l93.48134985 348.87621039-56.06036416 56.06036416 205.56171661 205.56171744z" fill="#BFBFBF" p-id="2485"></path><path d="M408.31610708 483.41244318L726.70776344 166.65254822l10.31527634 29.07381884-328.7069327 330.68080839L184.07464876 302.16379562l-29.64464703 29.64464704 86.72366217 320.99017648 320.73455237 86.97928546 65.23590563-65.23590564 225.59645489 220.18223227-26.49644027 26.48490876-205.54826357-205.43678806-51.31306906 54.7168991-352.45301826-95.94725207L121.13551137 326.76131803 184.07464876 265.7364747l224.24145832 217.67596848z" fill="#999999" p-id="2486"></path><path d="M700.21708934 185.5802247l-181.13717285 181.13909518L314.20819126 161.84759384l62.85649192-62.85456958 323.15240616 86.58720044z" fill="#999999" p-id="2487"></path><path d="M344.0738662 202.58591943l-35.30103992-35.30103908-1.66635763-2.49473228-0.5862052-2.94255423 0.5862052-2.9406319 1.66635763-2.49473226 62.85457041-62.85649191 2.18721505-1.53181989 2.57929926-0.6899914 2.66002322 0.23256025L704.35127153 178.73028152l17.5130983-17.5150198 2.68116477-1.74131544 3.15781594-0.49971505 3.08670282 0.82837382 2.48512226 2.01039339 1.45109591 2.84837724 93.48134986 348.87813189c0.15568012 1.77206699 0.67653753 3.61909177-1.98925104 7.4246152l-50.625 50.625L981.15508696 777.15084021l-10.87265067 10.87265066-210.9970816-210.9970816-1.66635763-2.49473227-0.58620438-2.94255422 0.58620438-2.94255424 1.66635763-2.49280994 52.92176825-52.92176824L723.32123191 181.50370178l-214.43550705 214.43550706-3.15781594 1.79705237-94.69219784 94.69412016-2.49473227 1.66635847-2.94255424 0.58620438-2.94255422-0.58620438-2.49281077-1.66635847L183.74022383 276.00754562 129.45961434 330.29007663l91.47095727 341.37279355 341.37279273 91.47095645 52.92176824-52.92176825 2.49473227-1.66635764 2.94255423-0.58620437 2.94255424 0.58620437 2.49281075 1.66635764L837.09678719 921.20913999l-10.87265067 10.87265066-205.56171743-205.56171662-50.625 50.625c-1.45878442 1.02057248-2.7964833 2.39478909-7.42653754 1.98925105L212.66220559 685.36660037c-1.61254303-0.75149451-3.47109934-1.22430267-5.43536418-5.43536499L113.45911671 329.98063791c-0.15568012-1.77206699-0.67653753-3.61909177 1.98925105-7.42461603L178.30485967 259.69952998l2.49280993-1.66635765 2.94255423-0.58428286 2.94255423 0.58428286 2.49281076 1.66635764 48.58385504 48.58385587L258.59564824 229.1227221c0.82260847-2.60620697 1.82588242-4.32638086 5.47764807-5.47764806l80.00056989-21.05915461zM253.03343318 614.72223828l-3.70365876 1.03018167-64.90340303-233.38240274 3.70173724-1.03018249 64.90532455 233.38240356z m291.26480631-12.6735477l-13.31741217 7.687927-50.93059488-88.21704199 13.31548983-7.68792701 50.93251722 88.217042z m21.13987774-21.13987775l-13.31548983 7.68792701-50.93251722-88.2189635 13.31548985-7.687927 50.9325172 88.21896349z m21.13987692-21.14180008l-13.31548901 7.68792783-50.93251721-88.217042 13.31548984-7.687927 50.93251638 88.21704118z m21.14180009-21.13987692l-13.31741218 7.687927-50.93251721-88.21704198 13.31741217-7.68792701 50.93251722 88.217042z m21.13987774-21.13987775l-13.31548983 7.68792701-50.93251722-88.21896351 13.31548984-7.68792699 50.93251721 88.21896349z m-199.79000601-229.90553805l-21.05723227 80.00056906c-0.82260847 2.60620697-1.82588242 4.32638086-5.47764807 5.47764808l-79.16066373 20.8381267 82.22430267 82.22430268 91.73618977-91.73619059 3.15781677-1.79897469 11.79135763-11.79135847-83.21412277-83.21412277zM272.32436382 237.37186811l-21.77028754 82.70287536 61.02868716 61.02676566 82.70095469-21.77028755 21.77028753-82.70095385-61.02868799-61.02676565-82.70095385 21.76836603z m52.75647812-75.52427427l198.0755983 198.0755983 168.64044681-168.6385253L379.36145144 107.56698434l-54.2806095 54.2806095z m338.37258004 39.7485055l-0.99558709 3.71134643L380.13985366 129.56406595l0.9975086-3.71134644 282.31605972 75.74337983z" fill="#262626" p-id="2488"></path></svg>