<svg data-noselect="" viewBox="0 0 400 300" width="400" height="300" preserveAspectRatio="none" version="1.1" xmlns="http://www.w3.org/2000/svg" style="background: rgba(255, 255, 255, 0);"><defs></defs> <g id="shape_bSsGRsk7f5" transform="translate(125.04418677557851,38.05496828752643) rotate(0,59.090166091918945,60) scale(1.2684989429175475,1.2684989429175475)" filter="" style="cursor: move; opacity: 1;"><g><rect fill="rgba(0,0,0,0)" width="138.1803321838379" height="140" x="-10" y="-10"></rect><svg xmlns="http://www.w3.org/2000/svg" xmlns:xlink="http://www.w3.org/1999/xlink" shape-rendering="auto" id="layer1" text-rendering="auto" contentscripttype="text/ecmascript" color-rendering="auto" color-interpolation="auto" xml:space="preserve" preserveAspectRatio="none" image-rendering="auto" zoomAndPan="magnify" version="1.1" contentstyletype="text/css" x="0px" enable-background="new 0 0 87.785 89" y="0px" viewBox="2.999114990234375 3 78.7868881225586 80" width="118.18033218383789" height="120" data-parent="shape_bSsGRsk7f5">
 <g fill="#3786C7">
  <path d="M54.489,16.308c-0.1-3.277,0.451-6.575,1.63-9.686l-0.343-0.203c-2.628,2.109-4.796,4.71-6.375,7.653   C51.156,14.681,52.859,15.441,54.489,16.308L54.489,16.308z"></path>
  <path d="M36.859,12.174c-1.747-2.775-2.941-5.901-3.495-9.164L32.952,3c-1.197,3.16-1.724,6.5-1.613,9.832   C33.182,12.458,35.027,12.249,36.859,12.174L36.859,12.174z"></path>
  <path d="M45.954,13.076c-0.96-3.16-1.297-6.482-0.973-9.78l-0.393-0.106c-1.969,2.72-3.388,5.795-4.132,9.044   C42.323,12.358,44.156,12.647,45.954,13.076L45.954,13.076z"></path>
  <path d="M61.868,21.687c0.773-3.198,2.159-6.223,4.123-8.911l-0.281-0.298c-3.088,1.333-5.86,3.294-8.16,5.703   C59.08,19.222,60.518,20.405,61.868,21.687L61.868,21.687z"></path>
  <path d="M67.572,28.816c1.591-2.882,3.733-5.442,6.317-7.519l-0.188-0.357c-3.329,0.478-6.506,1.625-9.365,3.35   C65.518,25.703,66.614,27.205,67.572,28.816L67.572,28.816z"></path>
  <path d="M70.912,36.226c0.104,0.316,0.197,0.641,0.289,0.962c2.292-2.359,5.035-4.273,8.078-5.589l-0.086-0.386   c-3.342-0.421-6.718-0.151-9.931,0.771C69.901,33.337,70.456,34.745,70.912,36.226L70.912,36.226z"></path>
  <path d="M71.383,55.285c3.168-0.87,6.502-1.126,9.798-0.708l0.118-0.386c-2.668-2.065-5.714-3.54-8.944-4.38   C72.181,51.667,71.854,53.496,71.383,55.285L71.383,55.285z"></path>
  <path d="M71.998,40.684c0.328,1.848,0.496,3.694,0.513,5.529c2.832-1.667,5.976-2.784,9.258-3.255l0.017-0.413   C78.669,41.28,75.343,40.652,71.998,40.684L71.998,40.684z"></path>
  <path d="M70.288,58.718c-0.645,1.723-1.449,3.406-2.378,5.02c3.291-0.014,6.571,0.62,9.646,1.881l0.222-0.346   C75.735,62.594,73.185,60.365,70.288,58.718L70.288,58.718z"></path>
  <path d="M27.759,13.756c0.034-0.01,0.071-0.023,0.102-0.041c-2.412-2.219-4.401-4.91-5.795-7.923L21.67,5.897   c-0.322,3.358,0.037,6.717,1.032,9.898C24.309,15,25.992,14.314,27.759,13.756L27.759,13.756z"></path>
  <path d="M55.086,76.495c2.835,1.658,5.338,3.863,7.338,6.505l0.359-0.172c-0.391-3.35-1.463-6.563-3.101-9.458   C58.248,74.522,56.714,75.565,55.086,76.495L55.086,76.495z"></path>
  <path d="M62.356,70.964c3.167,0.87,6.172,2.342,8.792,4.365l0.309-0.279c-1.264-3.114-3.138-5.938-5.492-8.296   C64.883,68.241,63.677,69.647,62.356,70.964L62.356,70.964z"></path>
  <path d="M14.668,58.227c1.866,0.046,3.733-0.086,5.554-0.341c-0.21-0.377-0.431-0.759-0.634-1.147   c-2.683-5.039-4.548-10.145-5.616-14.986c-1.238,0.068-2.502,0.055-3.758-0.072c-3.721-0.41-6.109-2.353-6.109-2.353   c-1.14,4.39-1.416,9.027-0.747,13.613C3.359,52.939,6.082,58.265,14.668,58.227L14.668,58.227z"></path>
  <path d="M27.412,72.206c1.186-0.144,2.361-0.333,3.487-0.562c-3.437-3.178-6.714-7.179-9.554-11.839   c-1.898,0.306-3.732,0.467-5.487,0.477C5.629,60.111,3.996,56.313,3.996,56.313c0.066,0.246,0.377,1.223,0.457,1.481   c0.635,2.12,1.481,4.193,2.564,6.22c0.694,1.305,1.493,2.545,2.391,3.736C9.408,67.751,14.672,73.541,27.412,72.206L27.412,72.206z   "></path>
  <path d="M15.33,39.658c2.789-0.308,6.209-1.152,10.331-2.951c0.43-0.194,0.868-0.381,1.311-0.58   c-2.847-6.441-5.113-12.581-6.762-18.154c-0.116,0.058-0.218,0.126-0.326,0.19c-1.009,0.613-1.979,1.245-2.905,1.93   C14.035,24.291,13.519,31.438,15.33,39.658L15.33,39.658z"></path>
  <path d="M13.583,39.777c-1.299-7.484-0.587-14.152,2.098-18.65c-5.153,4.285-8.815,9.918-10.75,16.112   C5.577,37.848,8.204,39.901,13.583,39.777L13.583,39.777z"></path>
  <path d="M32.792,73.297c-5.972,1.408-12.785,1.843-18.54-0.844c8.697,8.032,21.142,10.945,32.613,7.298   C42.437,79.479,37.515,77.182,32.792,73.297L32.792,73.297z"></path>
  <path d="M60.018,56.983c-2.917,3.843-7.46,7.707-12.949,10.921c-0.401,0.21-1.02,0.518-1.812,0.909   c-0.308,0.144-0.652,0.317-1.013,0.481c-2.344,1.078-5.745,2.477-9.602,3.53c4.739,4.095,9.563,6.416,13.704,6.427   c1.148-0.444,2.308-0.943,3.449-1.526c0.053-0.017,0.104-0.045,0.156-0.072c0.054-0.026-3.938-5.054-5.311-6.835   c0.17-0.08,0.331-0.153,0.501-0.244c1.116-0.601,2.08-1.182,2.732-1.662c4.797-3.203,8.304-7.045,10.557-10.784   c1.078-1.807,1.886-3.591,2.373-5.273l-0.23-0.124C61.984,54.114,61.108,55.538,60.018,56.983L60.018,56.983z"></path>
  <path d="M59.384,32.322c-1.068,3.184-3.073,6.516-5.838,9.738c-3.685,4.278-8.72,8.37-14.714,11.627   c-0.281,0.163-0.566,0.317-0.851,0.464l0.011,0.008c-0.502,0.266-1.011,0.496-1.509,0.74c-0.468,0.228-0.94,0.436-1.409,0.647   c-2.047,0.932-4.097,1.75-6.119,2.402c0,0-1.224,0.444-2.535,0.736l0.01,0.02c-0.986,0.261-1.956,0.503-2.914,0.701   c2.851,4.635,6.054,8.635,9.358,11.813c4.28-1.027,7.823-2.442,10.169-3.521c0.396-0.184,0.765-0.364,1.092-0.527   c-2.125-3.108-4.292-6.564-6.379-10.093c0.032-0.022,0.074-0.042,0.11-0.06c0.435-0.207,0.907-0.449,1.393-0.705   c1.175-0.62,2.209-1.232,2.971-1.731c4.847-3.071,8.933-7.103,11.952-11.228c2.733-3.727,4.603-7.517,5.367-10.747L59.384,32.322   L59.384,32.322z"></path>
  <path d="M27.85,38.067c-0.422,0.18-0.879,0.383-1.37,0.582c-2.708,1.141-6.535,2.456-10.681,2.952   c1.174,4.544,3.052,9.373,5.624,14.165c0.311,0.592,0.639,1.174,0.966,1.752c4.554-0.899,8.704-2.47,11.643-3.773   c0.505-0.232,0.995-0.435,1.423-0.644c-0.755-1.345-1.491-2.718-2.22-4.097c0.065,0.113-2.5-4.931-3.78-7.504   c-0.198-0.422-0.403-0.852-0.608-1.274c0.148-0.088,0.304-0.161,0.461-0.244c0.202-0.095,0.383-0.202,0.572-0.305   c0.146-0.068,0.165-0.072,0.137-0.055l1.564-0.843c6.192-3.441,10.437-8.032,12.915-12.469c1.078-1.933,1.815-3.827,2.244-5.577   l-0.215-0.138c-0.577,1.544-1.479,3.159-2.655,4.78c-2.914,4.054-7.55,8.155-13.372,11.374l-0.252,0.114   C30.247,36.863,29.511,37.303,27.85,38.067L27.85,38.067z"></path>
 </g>
 <!--Copyright (c) Logomaker.com.cn  @2015-05-31-->
</svg></g> <!----></g><g id="shapge_l2rRbFc6gZ" transform="translate(125.79281183932348,213.74207188160676) rotate(0,0,0) scale(1.2684989429175475,1.2684989429175475)" filter="" style="cursor: move; opacity: 1;"><g><svg xmlns="http://www.w3.org/2000/svg" version="1.1" xmlns:xlink="http://www.w3.org/1999/xlink" overflow="hidden" style="top:0; left: 0" width="117" height="38" viewBox="0 0 117.839 38.279999999999994" preserveAspectRatio="none" data-parent="shapge_l2rRbFc6gZ"><rect fill="rgba(0,0,0,0)" width="117" height="38"></rect> <rect opacity="0"></rect><g transform="translate(0 0)" data-width="112.839"><path fill="#1C94D1" d="M6.58-11.89L5.54-8.64L11.98-8.64L10.96-11.89L10.96-11.89Q9.83-15.46 8.82-19.08L8.82-19.08L8.70-19.08L8.70-19.08Q7.71-15.43 6.58-11.89L6.58-11.89ZM17.52 0L14.67 0L12.64-6.50L4.87-6.50L2.81 0L0.09 0L7.31-21.26L10.29-21.26L17.52 0Z" transform="translate(0 25.52)"></path><path fill="#1C94D1" d="M5.31 0L2.67 0L2.67-15.75L4.84-15.75L5.08-13.49L5.16-13.49L5.16-13.49Q6.29-14.62 7.57-15.38L7.57-15.38L7.57-15.38Q8.85-16.15 10.44-16.15L10.44-16.15L10.44-16.15Q12.93-16.15 14.09-14.57L14.09-14.57L14.09-14.57Q15.25-12.99 15.25-9.98L15.25-9.98L15.25 0L12.62 0L12.62-9.63L12.62-9.63Q12.62-11.86 11.90-12.85L11.90-12.85L11.90-12.85Q11.19-13.83 9.63-13.83L9.63-13.83L9.63-13.83Q8.41-13.83 7.44-13.22L7.44-13.22L7.44-13.22Q6.47-12.62 5.31-11.43L5.31-11.43L5.31 0Z" transform="translate(17.603 25.52)"></path><path fill="#1C94D1" d="M2.93 6.79L2.93 6.79L2.93 6.79Q1.80 6.79 1.07 6.47L1.07 6.47L1.59 4.35L1.59 4.35Q1.83 4.44 2.16 4.52L2.16 4.52L2.16 4.52Q2.49 4.61 2.78 4.61L2.78 4.61L2.78 4.61Q4.15 4.61 5.02 3.65L5.02 3.65L5.02 3.65Q5.89 2.70 6.35 1.22L6.35 1.22L6.70 0.03L0.38-15.75L3.13-15.75L6.35-6.99L6.35-6.99Q6.44-6.70 6.55-6.41L6.55-6.41L6.55-6.41Q7.19-4.50 7.86-2.58L7.86-2.58L8.00-2.58L8.00-2.58Q8.29-3.48 8.55-4.44L8.55-4.44L8.55-4.44Q8.96-5.77 9.34-6.99L9.34-6.99L12.15-15.75L14.73-15.75L8.79 1.31L8.79 1.31Q8.24 2.87 7.47 4.10L7.47 4.10L7.47 4.10Q6.70 5.34 5.60 6.06L5.60 6.06L5.60 6.06Q4.50 6.79 2.93 6.79Z" transform="translate(35.322 25.52)"></path><path fill="#1C94D1" d="M9.13 0L6.06 0L0.38-15.75L3.13-15.75L6.09-6.79L6.09-6.79Q6.38-5.92 6.64-5.05L6.64-5.05L6.64-5.05Q7.11-3.54 7.57-2.15L7.57-2.15L7.69-2.15L7.69-2.15Q7.89-2.78 8.09-3.45L8.09-3.45L8.09-3.45Q8.61-5.10 9.13-6.79L9.13-6.79L12.12-15.75L14.73-15.75L9.13 0Z" transform="translate(50.431000000000004 25.52)"></path><path fill="#1C94D1" d="M5.31 0L2.67 0L2.67-15.75L5.31-15.75L5.31 0ZM4.00-19.00L4.00-19.00L4.00-19.00Q3.22-19.00 2.70-19.49L2.70-19.49L2.70-19.49Q2.18-19.98 2.18-20.71L2.18-20.71L2.18-20.71Q2.18-22.33 4.00-22.42L4.00-22.42L4.00-22.42Q4.79-22.42 5.31-21.97L5.31-21.97L5.31-21.97Q5.83-21.52 5.83-20.71L5.83-20.71L5.83-20.71Q5.83-19.98 5.31-19.49L5.31-19.49L5.31-19.49Q4.79-19.00 4.00-19.00Z" transform="translate(65.54 25.52)"></path><path fill="#1C94D1" d="M9.02 0.38L9.02 0.38L9.02 0.38Q6.93 0.38 5.22-0.59L5.22-0.59L5.22-0.59Q3.51-1.57 2.49-3.42L2.49-3.42L2.49-3.42Q1.48-5.28 1.48-7.86L1.48-7.86L1.48-7.86Q1.48-10.41 2.49-12.27L2.49-12.27L2.49-12.27Q3.51-14.12 5.13-15.14L5.13-15.14L5.13-15.14Q6.76-16.15 8.58-16.15L8.58-16.15L8.58-16.15Q11.60-16.15 13.22-14.14L13.22-14.14L13.22-14.14Q14.85-12.12 14.85-8.76L14.85-8.76L14.85-8.76Q14.85-7.89 14.73-7.25L14.73-7.25L4.12-7.25L4.12-7.25Q4.29-4.70 5.70-3.22L5.70-3.22L5.70-3.22Q7.11-1.74 9.34-1.74L9.34-1.74L9.34-1.74Q10.50-1.74 11.46-2.07L11.46-2.07L11.46-2.07Q12.41-2.41 13.28-2.99L13.28-2.99L14.24-1.25L14.24-1.25Q13.20-0.55 11.92-0.09L11.92-0.09L11.92-0.09Q10.64 0.38 9.02 0.38ZM4.09-9.13L4.09-9.13L12.53-9.13L12.53-9.13Q12.53-13.92 8.61-14.04L8.61-14.04L8.61-14.04Q6.93-14.04 5.66-12.76L5.66-12.76L5.66-12.76Q4.38-11.48 4.09-9.13Z" transform="translate(73.515 25.52)"></path><path fill="#1C94D1" d="M8.27 0L5.16 0L0.78-15.75L3.48-15.75L5.83-6.64L5.83-6.64Q5.97-5.95 6.12-5.25L6.12-5.25L6.12-5.25Q6.47-3.74 6.76-2.23L6.76-2.23L6.90-2.23L6.90-2.23Q7.02-2.73 7.13-3.19L7.13-3.19L7.13-3.19Q7.51-4.90 7.98-6.64L7.98-6.64L10.41-15.75L12.99-15.75L15.46-6.64L15.46-6.64Q15.66-5.89 15.83-5.13L15.83-5.13L15.83-5.13Q16.18-3.68 16.56-2.23L16.56-2.23L16.68-2.23L16.68-2.23Q16.96-3.42 17.20-4.58L17.20-4.58L17.20-4.58Q17.43-5.60 17.66-6.64L17.66-6.64L19.98-15.75L22.48-15.75L18.24 0L15.05 0L12.76-8.50L12.76-8.50Q12.35-9.98 12.04-11.48L12.04-11.48L12.04-11.48Q11.86-12.24 11.69-13.02L11.69-13.02L11.54-13.02L11.54-13.02Q11.51-12.91 11.48-12.82L11.48-12.82L11.48-12.82Q11.02-10.56 10.47-8.44L10.47-8.44L8.27 0Z" transform="translate(89.581 25.52)"></path></g></svg></g> <!----></g>  </svg>